<?xml version="1.0" encoding="UTF-8"?>
<svg version="1.1" xmlns="http://www.w3.org/2000/svg" width="300" height="300">
<path d="M0 0 C0 29.04 0 58.08 0 88 C-8.58 86.35 -17.16 84.7 -26 83 C-89.80357208 71.89059318 -154.78735645 75.35747129 -218 88 C-218 58.96 -218 29.92 -218 0 C-187.52930771 -7.03169822 -187.52930771 -7.03169822 -178.375 -8.25 C-177.22700928 -8.4056543 -176.07901855 -8.56130859 -174.89624023 -8.72167969 C-116.42789929 -16.23144707 -57.36524693 -12.74783265 0 0 Z " fill="#6DB33F" transform="translate(259,26)"/>
<path d="M0 0 C1 1 1 1 1.12025452 3.77772522 C1.11803391 5.01904709 1.11581329 6.26036896 1.11352539 7.53930664 C1.11367142 8.22220261 1.11381744 8.90509857 1.1139679 9.60868835 C1.11326876 11.87587614 1.1054764 14.14298274 1.09765625 16.41015625 C1.09579207 17.97814387 1.09436817 19.54613207 1.09336853 21.11412048 C1.08954334 25.24876503 1.07971306 29.38337466 1.06866455 33.51800537 C1.05845044 37.73400398 1.05387091 41.95000822 1.04882812 46.16601562 C1.03809079 54.44402647 1.02101436 62.7220089 1 71 C-1.35901852 71.63950017 -3.71871345 72.2762988 -6.07885742 72.91162109 C-7.06731281 73.18002052 -7.06731281 73.18002052 -8.075737 73.45384216 C-14.43113969 75.16058565 -20.83700729 76.45684941 -27.3125 77.625 C-28.47749023 77.83737305 -29.64248047 78.04974609 -30.84277344 78.26855469 C-40.19514752 79.93447053 -49.52641292 81.26537351 -59 82 C-60.57042557 82.12273033 -60.57042557 82.12273033 -62.1725769 82.24794006 C-71.2760543 82.9083519 -80.33106531 83.16302327 -89.4609375 83.16796875 C-90.90418527 83.17120052 -92.34743276 83.17456583 -93.79067993 83.17805481 C-96.79747269 83.1839864 -99.80423698 83.18590116 -102.81103516 83.18530273 C-105.83583613 83.1852219 -108.86048427 83.19210635 -111.88525391 83.20581055 C-134.76459367 83.30776429 -157.54938081 82.89286838 -180.1875 79.1875 C-181.24066406 79.02080811 -182.29382813 78.85411621 -183.37890625 78.68237305 C-210.53751306 74.23124347 -210.53751306 74.23124347 -217 71 C-217 47.57 -217 24.14 -217 0 C-147.69774425 -15.40050128 -69.07346992 -19.97587469 0 0 Z " fill="#6DB33F" transform="translate(258,117)"/>
<path d="M0 0 C4.99105974 0.62388247 9.63520539 1.2668185 14.5078125 2.3046875 C78.29647307 15.51877594 148.6290401 15.65480042 212.07128906 0.35180664 C214 0 214 0 218 0 C218 27.39 218 54.78 218 83 C159.48742087 96.00279536 99.20382626 99.32820144 39.625 91.25 C38.62976318 91.11754883 37.63452637 90.98509766 36.60913086 90.84863281 C24.2073723 88.99847782 12.28428174 85.83483425 0 83 C0 55.61 0 28.22 0 0 Z " fill="#6DB33F" transform="translate(41,192)"/>
</svg>
