<?xml version="1.0" encoding="UTF-8"?>
<svg version="1.1" xmlns="http://www.w3.org/2000/svg" width="1280" height="1280">
<path d="M0 0 C1.98332455 -0.00231002 3.96664825 -0.00549015 5.94997019 -0.00945449 C11.3492606 -0.01773668 16.74847952 -0.01370742 22.14777005 -0.00748205 C27.99037395 -0.00293144 33.83296611 -0.00995417 39.67556763 -0.01544189 C51.10093964 -0.02430965 62.52628529 -0.02242563 73.95165832 -0.01661661 C83.24122652 -0.01209002 92.53078737 -0.01149153 101.82035637 -0.01366425 C102.48209839 -0.01381702 103.14384041 -0.01396979 103.82563522 -0.01412719 C106.51233517 -0.01474993 109.19903513 -0.01538674 111.88573507 -0.01604671 C137.05099732 -0.0221546 162.21624524 -0.01663374 187.38150527 -0.00585292 C209.70612166 0.00363827 232.03071523 0.00278694 254.35533142 -0.0067749 C279.47819142 -0.01749947 304.60103877 -0.0217224 329.72390074 -0.01555037 C332.40519201 -0.01490901 335.0864833 -0.01428332 337.76777458 -0.01366425 C339.08684563 -0.01335569 340.40591667 -0.01304714 341.76495956 -0.01272924 C351.03860229 -0.01100592 360.3122369 -0.01390954 369.58587837 -0.01862335 C380.89405306 -0.02424526 392.20219999 -0.02268817 403.51037151 -0.01206186 C409.27450164 -0.00682295 415.03858557 -0.00471797 420.8027153 -0.01136017 C426.08834352 -0.01735866 431.37388311 -0.01398073 436.65950339 -0.00340506 C438.56234991 -0.00118748 440.46520405 -0.00226996 442.36804558 -0.00715664 C457.14196293 -0.04216052 471.96300791 0.46239091 486.28965759 4.44146729 C487.46552429 4.76075195 487.46552429 4.76075195 488.66514587 5.08648682 C522.16796692 14.60748646 553.97407239 37.14573671 571.72715759 67.25396729 C572.26775818 68.17049072 572.80835876 69.08701416 573.36534119 70.03131104 C577.21784921 76.6011848 581.00254411 83.2087042 584.77159119 89.82672119 C587.90281843 95.31438262 591.06608216 100.78346437 594.22715759 106.25396729 C595.4773221 108.42053903 596.72732185 110.58720586 597.97715759 112.75396729 C598.59590759 113.82646729 599.21465759 114.89896729 599.85215759 116.00396729 C620.47715759 151.75396728 620.47715759 151.75396728 622.35240173 155.00445557 C623.60151277 157.16953799 624.85069889 159.33457711 626.09996033 161.49957275 C629.23918069 166.94012434 632.37706322 172.38143944 635.51231384 177.82427979 C641.55770918 188.31628822 647.61825978 198.79878405 653.72715759 209.25396729 C660.47416953 220.80126244 667.16055077 232.38298756 673.83604431 243.97174072 C676.96395908 249.40056671 680.09574207 254.8271601 683.22715759 260.25396729 C684.47717638 262.42062311 685.72717638 264.58728978 686.97715759 266.75396729 C687.59590759 267.82646729 688.21465759 268.89896729 688.85215759 270.00396729 C709.47715758 305.75396727 709.47715758 305.75396727 711.35240173 309.00445557 C712.60151277 311.16953799 713.85069889 313.33457711 715.09996033 315.49957275 C718.23918069 320.94012434 721.37706322 326.38143944 724.51231384 331.82427979 C730.55770918 342.31628822 736.61825978 352.79878405 742.72715759 363.25396729 C749.47416953 374.80126244 756.16055077 386.38298756 762.83604431 397.97174072 C765.96395908 403.40056671 769.09574207 408.8271601 772.22715759 414.25396729 C773.47717638 416.42062311 774.72717638 418.58728978 775.97715759 420.75396729 C776.59590759 421.82646729 777.21465759 422.89896729 777.85215759 424.00396729 C779.72715759 427.25396729 781.60215759 430.50396729 783.47715759 433.75396729 C784.09663269 434.82751465 784.71610779 435.90106201 785.35435486 437.00714111 C786.59776419 439.1628054 787.84044619 441.31888939 789.0823822 443.47540283 C791.96482769 448.47852898 794.85349751 453.47763404 797.76991272 458.46102905 C798.78875978 460.20278581 799.80518029 461.94593653 800.82090759 463.68951416 C802.08568524 465.85895915 803.35485056 468.02585535 804.62950134 470.18951416 C823.45779413 502.55325744 829.39507919 540.56033464 820.72715759 577.25396729 C820.477724 578.33025391 820.477724 578.33025391 820.22325134 579.42828369 C817.55322887 590.51134919 813.17644288 600.28227557 807.72715759 610.25396729 C807.35993591 610.93475342 806.99271423 611.61553955 806.61436462 612.31695557 C801.07707223 622.56369008 795.21055 632.61821261 789.32237244 642.66607666 C784.73642933 650.49819392 780.21925813 658.36785925 775.72715759 666.25396729 C770.21485903 675.92897092 764.64290927 685.56679319 759.01622009 695.17584229 C754.53549613 702.83970498 750.12209007 710.54075564 745.72715759 718.25396729 C740.21451924 727.92877947 734.64291192 737.56678866 729.01622009 747.17584229 C724.53549613 754.83970498 720.12209007 762.54075564 715.72715759 770.25396729 C710.21451924 779.92877947 704.64291192 789.56678866 699.01622009 799.17584229 C694.53549494 806.83970703 690.12221535 814.54082563 685.72715759 822.25396729 C680.18729826 831.97521234 674.59340828 841.66291597 668.94371033 851.32086182 C662.78949018 861.84481353 656.70345763 872.40776866 650.61827087 882.97174072 C647.49035611 888.40056671 644.35857311 893.8271601 641.22715759 899.25396729 C639.9771388 901.42062311 638.72713881 903.58728978 637.47715759 905.75396729 C618.72715759 938.25396729 618.72715759 938.25396729 599.97715759 970.75396729 C599.35792419 971.82743408 598.7386908 972.90090088 598.10069275 974.00689697 C596.8560268 976.16405844 595.61091273 978.32096141 594.36534119 980.4776001 C591.15493106 986.03760339 587.95338556 991.60248362 584.76622009 997.17584229 C566.35607579 1029.33314018 566.35607579 1029.33314018 555.72715759 1040.25396729 C554.42198181 1041.66935791 554.42198181 1041.66935791 553.09043884 1043.11334229 C529.36514823 1068.41646385 494.21803488 1084.29681883 459.72715759 1086.25396729 C453.21445285 1086.43721356 446.69720519 1086.39354108 440.18257141 1086.38768005 C438.2051386 1086.38955051 436.22770616 1086.39185215 434.2502743 1086.39454538 C428.83937789 1086.40064075 423.42849697 1086.40053245 418.01759791 1086.399351 C412.17282675 1086.39914642 406.32806049 1086.40467122 400.48329163 1086.40940857 C389.04072695 1086.4177033 377.59816743 1086.42046288 366.1556 1086.42102095 C356.85111952 1086.42149667 347.54664074 1086.42355424 338.2421608 1086.42672157 C335.55955494 1086.42761918 332.87694907 1086.42850899 330.19434321 1086.42939645 C329.52735343 1086.4296175 328.86036365 1086.42983855 328.17316206 1086.43006629 C309.42261304 1086.43621687 290.67206459 1086.44016723 271.92151451 1086.43972301 C271.21518771 1086.43970744 270.50886091 1086.43969186 269.78113027 1086.43967581 C266.20153986 1086.4395927 262.62194945 1086.43949366 259.04235904 1086.4393911 C257.97606692 1086.43936118 257.97606692 1086.43936118 256.88823356 1086.43933066 C255.45069941 1086.43929022 254.01316527 1086.43924842 252.57563113 1086.43920527 C230.2184186 1086.43859275 207.86122125 1086.44609632 185.50401306 1086.45977783 C160.3588487 1086.47515927 135.21369431 1086.48374281 110.06852496 1086.48281461 C107.38403296 1086.48273998 104.69954097 1086.48269127 102.01504898 1086.48266029 C101.35410837 1086.48264864 100.69316776 1086.48263698 100.01219864 1086.48262498 C90.0606467 1086.48259618 80.10910683 1086.48792855 70.15755844 1086.49599266 C58.82987278 1086.50511334 47.50221199 1086.50726004 36.17452423 1086.50048324 C30.40018369 1086.49722594 24.62589083 1086.49713275 18.85155487 1086.50583649 C13.5551523 1086.5137374 8.25883495 1086.51223361 2.96243437 1086.50355235 C1.05669768 1086.50202524 -0.84904548 1086.50380341 -2.75477453 1086.50941243 C-17.99288449 1086.55125526 -33.61486815 1086.24239595 -48.33534241 1081.87896729 C-49.61381042 1081.50421265 -49.61381042 1081.50421265 -50.91810608 1081.12188721 C-85.30525521 1070.37300323 -116.10550064 1048.12023368 -133.92225647 1016.6338501 C-135.47881749 1013.89101625 -137.05844291 1011.16213386 -138.64002991 1008.43365479 C-141.87099994 1002.8555706 -145.08781893 997.2694659 -148.30116272 991.68121338 C-151.45309473 986.20240932 -154.61325037 980.72835616 -157.77284241 975.25396729 C-159.02288471 973.08732503 -160.27288464 970.92065832 -161.52284241 968.75396729 C-162.14159241 967.68146729 -162.76034241 966.60896729 -163.39784241 965.50396729 C-184.02284241 929.75396728 -184.02284241 929.75396728 -185.89808655 926.503479 C-187.14719759 924.33839658 -188.3963837 922.17335746 -189.64564514 920.00836182 C-192.7848655 914.56781023 -195.92274804 909.12649513 -199.05799866 903.68365479 C-205.08031569 893.23190529 -211.11953578 882.79097181 -217.21034241 872.37896729 C-222.63242939 863.10832798 -227.97608252 853.7946003 -233.29307556 844.46350098 C-237.90768269 836.36688885 -242.56369127 828.29607928 -247.27284241 820.25396729 C-252.676407 811.02596199 -257.99936602 801.75402058 -263.29335022 792.46295166 C-267.90787044 784.36652596 -272.56379496 776.29590219 -277.27284241 768.25396729 C-282.676407 759.02596199 -287.99936602 749.75402058 -293.29335022 740.46295166 C-297.90787044 732.36652596 -302.56379496 724.29590219 -307.27284241 716.25396729 C-312.676407 707.02596199 -317.99936602 697.75402058 -323.29335022 688.46295166 C-327.90787115 680.36652471 -332.56391639 672.29597411 -337.27284241 664.25396729 C-343.05800083 654.37119522 -348.76962253 644.44779416 -354.43055725 634.49346924 C-357.50384761 629.09071279 -360.58893332 623.6968769 -363.74159241 618.33990479 C-382.9259968 585.64838005 -390.89849443 545.63412098 -381.27284241 508.25396729 C-377.45955598 493.90118086 -371.65610363 481.09228293 -364.27284241 468.25396729 C-363.49312073 466.89561768 -363.49312073 466.89561768 -362.69764709 465.50982666 C-359.81585435 460.50972026 -356.90457305 455.52756335 -353.97596741 450.55474854 C-350.22464365 444.18444505 -346.5247575 437.78527786 -342.83534241 431.37896729 C-342.21312805 430.29929687 -341.5909137 429.21962646 -340.94984436 428.10723877 C-339.68769199 425.91699964 -338.42572936 423.72665116 -337.16395569 421.53619385 C-334.03604092 416.10736786 -330.90425793 410.68077447 -327.77284241 405.25396729 C-326.52282362 403.08731146 -325.27282362 400.92064479 -324.02284241 398.75396729 C-312.77284241 379.25396729 -312.77284241 379.25396729 -301.52284241 359.75396729 C-300.90401184 358.68130615 -300.28518127 357.60864502 -299.64759827 356.503479 C-298.39848723 354.33839658 -297.14930111 352.17335746 -295.90003967 350.00836182 C-292.76081931 344.56781023 -289.62293678 339.12649513 -286.48768616 333.68365479 C-280.46536912 323.23190529 -274.42614903 312.79097181 -268.33534241 302.37896729 C-263.26009117 293.70134487 -258.25025474 284.98791161 -253.27284241 276.25396729 C-247.73282511 266.53281112 -242.13909432 256.84502071 -236.48939514 247.18707275 C-230.33517499 236.66312104 -224.24914245 226.10016591 -218.16395569 215.53619385 C-215.03604092 210.10736786 -211.90425793 204.68077447 -208.77284241 199.25396729 C-207.52282362 197.08731146 -206.27282362 194.92064479 -205.02284241 192.75396729 C-192.52284241 171.08730062 -180.02284241 149.42063395 -167.52284241 127.75396729 C-166.90393127 126.68114502 -166.28502014 125.60832275 -165.64735413 124.50299072 C-164.39913207 122.33949252 -163.15076001 120.17608085 -161.90223694 118.01275635 C-158.74878985 112.54831711 -155.59808145 107.08233083 -152.45252991 101.61334229 C-149.33770006 96.19915819 -146.21416173 90.79008966 -143.08387756 85.38482666 C-141.88040949 83.30430973 -140.67954422 81.22228496 -139.4813385 79.13873291 C-127.4055751 58.15780622 -127.4055751 58.15780622 -120.27284241 50.25396729 C-119.58061584 49.43283447 -118.88838928 48.61170166 -118.17518616 47.76568604 C-100.47883455 27.19796874 -74.29065401 12.30415269 -48.46034241 4.69146729 C-47.31795105 4.35042969 -47.31795105 4.35042969 -46.15248108 4.00250244 C-31.15697822 -0.02408228 -15.40881195 -0.03962222 0 0 Z M180.72715759 196.25396729 C173.55875379 204.81216366 168.61473269 215.22244086 168.59293652 226.51999569 C168.58847867 227.59282864 168.58402083 228.66566158 168.5794279 229.77100462 C168.57961226 230.94889777 168.57979662 232.12679092 168.57998657 233.34037781 C168.57630988 234.59235728 168.5726332 235.84433675 168.56884509 237.13425499 C168.55883462 240.61180596 168.55510982 244.08933966 168.55245578 247.566903 C168.54854978 251.3169534 168.53897149 255.06699017 168.53024292 258.81703186 C168.51048454 267.87594151 168.50041206 276.93485227 168.49151513 285.99377808 C168.48713029 290.26229732 168.4817639 294.53081531 168.47652626 298.79933357 C168.45951288 312.99407792 168.44502024 327.18882151 168.43777752 341.38357449 C168.43586769 345.06685322 168.43394735 348.75013194 168.43199158 352.43341064 C168.43150784 353.34884795 168.4310241 354.26428526 168.4305257 355.20746309 C168.42223117 370.02621033 168.39690451 384.84487669 168.3644109 399.66358864 C168.33130462 414.88617671 168.31332544 430.10872375 168.31013328 445.331348 C168.30797124 453.87474746 168.29926777 462.41802905 168.2736721 470.96139336 C168.25191611 478.23990074 168.24393861 485.51826165 168.25363889 492.79679786 C168.25816977 496.50681389 168.2563688 500.21652802 168.23687744 503.92650223 C168.21587351 507.95944615 168.2262755 511.99172675 168.2394104 516.02470398 C168.22295653 517.76142897 168.22295653 517.76142897 168.20617026 519.53323931 C168.31601935 533.56765872 172.82648998 546.21121896 182.47715759 556.50396729 C192.86440861 566.26168794 205.29101936 570.90194686 219.432724 570.72662354 C232.767153 570.17539124 244.82188815 564.13529296 253.91465759 554.43756104 C263.23573415 543.20807441 266.34638253 530.44952089 266.23509216 516.08526611 C266.24445211 514.19576217 266.24445211 514.19576217 266.25400114 512.26808643 C266.27053505 508.81072225 266.26252201 505.35380573 266.25005627 501.89644098 C266.24094188 498.15266201 266.2550069 494.40895578 266.26597595 490.66519165 C266.28369814 483.34659564 266.27994945 476.02816435 266.26832539 468.70956206 C266.25926641 462.75792964 266.25807769 456.80634316 266.26242065 450.85470581 C266.26303359 450.00540932 266.26364652 449.15611282 266.26427802 448.28108007 C266.26555701 446.5553785 266.26685387 444.82967695 266.26816839 443.10397542 C266.27955573 426.94826135 266.26648953 410.7926383 266.24496692 394.63693917 C266.22709762 380.79536914 266.23020225 366.95393333 266.24864197 353.11236572 C266.27008137 337.01173922 266.27845726 320.91119234 266.26619291 304.81055355 C266.26491881 303.0914453 266.26366132 301.37233704 266.26242065 299.65322876 C266.26180355 298.8075469 266.26118645 297.96186503 266.26055065 297.09055644 C266.25710695 291.15083602 266.26290488 285.21116641 266.27233887 279.27145386 C266.28359443 272.0260776 266.28044445 264.78087453 266.25921589 257.53551793 C266.24875303 253.84368444 266.24450137 250.15213898 266.2578125 246.46030807 C266.27206132 242.44751428 266.25497003 238.43543836 266.23509216 234.42266846 C266.24847649 232.69515209 266.24847649 232.69515209 266.26213121 230.9327364 C266.14819003 219.0180838 263.10599179 208.66706655 255.72715759 199.25396729 C255.26438416 198.62877197 254.80161072 198.00357666 254.32481384 197.35943604 C247.10105409 188.17465563 235.21438533 182.00202368 223.72715759 180.25396729 C207.38943107 178.89988941 192.09181295 184.35586892 180.72715759 196.25396729 Z M354.69981384 261.57037354 C346.68735809 272.1237772 343.96457228 284.21910803 345.72715759 297.25396729 C349.16406502 312.11174851 357.02598003 320.17601567 368.72715759 329.25396729 C392.71791291 348.21094805 411.71554493 370.25780361 427.72715759 396.25396729 C428.42325134 397.36642822 429.11934509 398.47888916 429.83653259 399.62506104 C444.31542449 423.74689493 453.65856504 451.67139388 458.72715759 479.25396729 C458.89086853 480.13826416 459.05457947 481.02256104 459.22325134 481.93365479 C470.12674713 544.11061425 454.48411093 610.31425874 418.73497009 662.03131104 C411.14659922 672.78434976 402.83935852 682.76011898 393.72715759 692.25396729 C393.19219666 692.81615967 392.65723572 693.37835205 392.10606384 693.95758057 C383.88307967 702.55800541 375.29844742 710.19129244 365.72715759 717.25396729 C365.15497498 717.68161377 364.58279236 718.10926025 363.99327087 718.54986572 C355.25188968 725.0645989 346.18565634 730.8408957 336.72715759 736.25396729 C335.60438416 736.9101001 334.48161072 737.56623291 333.32481384 738.24224854 C279.6022127 768.39700441 212.14584007 774.82762962 153.02427673 758.73419189 C103.68924531 744.61447748 57.20390354 716.35533363 25.72715759 675.25396729 C25.01559509 674.34775635 24.30403259 673.44154541 23.57090759 672.50787354 C-16.52945177 620.47624528 -33.85669324 554.80275791 -25.7535553 489.71173096 C-22.12210541 463.81782707 -14.69246333 438.76552889 -3.27284241 415.25396729 C-2.87081604 414.42397217 -2.46878967 413.59397705 -2.05458069 412.73883057 C8.16621866 391.8949612 21.03864303 373.652786 36.67247009 356.53131104 C38.43281557 354.58020568 40.11900083 352.59383185 41.78965759 350.56646729 C44.45278846 347.43637649 47.39930841 344.79462583 50.52793884 342.13677979 C52.95489536 340.05899463 55.30730942 337.91030127 57.66465759 335.75396729 C63.13126307 330.81638815 68.87571282 326.30700752 74.85215759 322.00396729 C83.91055104 313.33941703 87.97885868 302.52291605 88.72715759 290.23834229 C88.72715759 277.82876688 83.34327781 267.24815151 74.94981384 258.37506104 C65.16333636 249.10892796 54.1493779 246.74177398 41.12559509 246.98443604 C30.02015215 247.46842163 22.16986611 252.414766 13.72715759 259.25396729 C12.82094666 259.96939697 11.91473572 260.68482666 10.98106384 261.42193604 C5.21701905 266.04134782 -0.28076136 270.91223239 -5.71424866 275.91412354 C-7.91096144 277.92302576 -10.1383361 279.87910841 -12.39784241 281.81646729 C-30.21608107 297.33910465 -45.15630416 316.69329311 -58.27284241 336.25396729 C-58.75430725 336.96681885 -59.23577209 337.67967041 -59.73182678 338.41412354 C-87.88708471 380.44026288 -105.10374851 428.33314656 -112.27284241 478.25396729 C-112.38611877 479.01773682 -112.49939514 479.78150635 -112.61610413 480.56842041 C-124.65122068 563.84458236 -100.23238487 652.29660098 -50.22206116 719.38287354 C-46.37639295 724.46092312 -42.40706732 729.40766016 -38.27284241 734.25396729 C-37.348154 735.36447017 -36.42368885 736.47515898 -35.49940491 737.58599854 C-24.11321405 751.13024843 -11.76966128 764.42698158 2.22715759 775.30865479 C4.95585244 777.43192046 7.54843054 779.68133781 10.16465759 781.94146729 C60.33686546 823.61209436 124.27883495 847.05255495 188.72715759 853.25396729 C189.838974 853.36200684 189.838974 853.36200684 190.97325134 853.472229 C274.62352944 861.15647726 362.13104531 833.5391272 426.68028259 780.01568604 C429.57825766 777.56884896 432.43251153 775.07579177 435.26475525 772.55328369 C436.5582875 771.40400512 437.86630066 770.27107032 439.17637634 769.14068604 C451.66464417 758.22140262 463.56986909 746.37770973 473.72715759 733.25396729 C474.62605302 732.16387501 475.52864689 731.07682584 476.43418884 729.99224854 C531.8403072 663.18224193 555.73117468 574.75006509 548.10264587 489.01226807 C547.10316415 479.00835277 545.61235212 469.1276929 543.72715759 459.25396729 C543.53170349 458.22739014 543.33624939 457.20081299 543.13487244 456.14312744 C538.15443077 430.86906725 530.15006155 405.38109865 518.72715759 382.25396729 C518.40150818 381.58204346 518.07585876 380.91011963 517.74034119 380.21783447 C515.46699382 375.52926335 513.1166979 370.88421435 510.72715759 366.25396729 C510.24013367 365.30094727 510.24013367 365.30094727 509.74327087 364.32867432 C498.16443584 341.73006199 483.22699361 320.38961651 465.99278259 301.73052979 C464.10596095 299.66803854 462.27274942 297.57608571 460.44590759 295.46099854 C456.77458411 291.25594977 452.92601129 287.26051234 448.97715759 283.31646729 C448.27687439 282.61698975 447.57659119 281.91751221 446.85508728 281.19683838 C442.22096686 276.61694929 437.50103043 272.35795604 432.37168884 268.33599854 C429.92664857 266.41102592 427.56243225 264.41150435 425.20347595 262.38262939 C412.27624852 251.32588132 400.00830228 245.0377616 382.73789978 246.03619385 C371.42350347 247.26159957 362.05543129 253.16597827 354.69981384 261.57037354 Z " fill="#6DB33F" transform="translate(420.27284240722656,96.74603271484375)"/>
</svg>
